<svg width="216" height="37" viewBox="0 0 216 37" fill="none" xmlns="http://www.w3.org/2000/svg">
<path d="M207.472 35.8544C207.025 35.8544 206.58 35.7177 206.197 35.4454L197.2 29.0146L188.203 35.4454C187.83 35.7127 187.382 35.8558 186.923 35.8542C186.464 35.8526 186.017 35.7065 185.646 35.4366C185.275 35.1683 184.998 34.7902 184.855 34.356C184.712 33.9218 184.71 33.4536 184.849 33.0182L188.204 22.2244L179.288 15.9623C178.918 15.6904 178.644 15.3097 178.503 14.8739C178.363 14.4382 178.363 13.9694 178.505 13.5339C178.647 13.0995 178.923 12.7207 179.294 12.4511C179.664 12.1815 180.11 12.0347 180.569 12.0314L191.612 12.0149L195.128 1.48903C195.273 1.05542 195.551 0.678283 195.923 0.411043C196.295 0.143803 196.742 0 197.201 0C197.66 0 198.107 0.143803 198.479 0.411043C198.851 0.678283 199.129 1.05542 199.274 1.48903L202.73 12.0149L213.83 12.0314C214.289 12.034 214.736 12.1807 215.106 12.4508C215.477 12.7208 215.753 13.1003 215.895 13.5355C216.037 13.9707 216.038 14.4395 215.897 14.8751C215.756 15.3107 215.482 15.6911 215.112 15.9623L206.195 22.2244L209.551 33.0182C209.69 33.4535 209.688 33.9216 209.545 34.3559C209.402 34.7901 209.126 35.1683 208.755 35.4366C208.382 35.7086 207.933 35.855 207.472 35.8544Z" fill="#009CDE"/>
<path d="M162.866 35.8544C162.419 35.8544 161.975 35.7177 161.592 35.4454L152.595 29.0146L143.598 35.4454C143.225 35.7127 142.777 35.8558 142.318 35.8542C141.859 35.8526 141.412 35.7065 141.041 35.4366C140.669 35.1683 140.393 34.7902 140.249 34.356C140.106 33.9218 140.104 33.4536 140.243 33.0182L143.599 22.2244L134.682 15.9623C134.313 15.6904 134.039 15.3097 133.898 14.8739C133.757 14.4382 133.758 13.9694 133.899 13.5339C134.042 13.0995 134.318 12.7207 134.688 12.4511C135.059 12.1815 135.505 12.0347 135.963 12.0314L147.006 12.0149L150.522 1.48903C150.667 1.05542 150.946 0.678283 151.318 0.411043C151.69 0.143803 152.137 0 152.595 0C153.054 0 153.501 0.143803 153.873 0.411043C154.245 0.678283 154.524 1.05542 154.669 1.48903L158.125 12.0149L169.224 12.0314C169.684 12.034 170.13 12.1807 170.501 12.4508C170.872 12.7208 171.147 13.1003 171.289 13.5355C171.431 13.9707 171.432 14.4395 171.291 14.8751C171.151 15.3107 170.876 15.6911 170.506 15.9623L161.59 22.2244L164.945 33.0182C165.085 33.4535 165.083 33.9216 164.94 34.3559C164.797 34.7901 164.52 35.1683 164.149 35.4366C163.777 35.7086 163.328 35.855 162.866 35.8544Z" fill="#009CDE"/>
<path d="M118.272 35.8544C117.826 35.8544 117.381 35.7177 116.998 35.4454L108.001 29.0146L99.004 35.4454C98.6312 35.7127 98.1833 35.8558 97.7241 35.8542C97.2649 35.8526 96.8179 35.7065 96.447 35.4366C96.0757 35.1683 95.7988 34.7902 95.6557 34.356C95.5125 33.9218 95.5104 33.4536 95.6496 33.0182L99.0051 22.2244L90.0887 15.9623C89.7192 15.6904 89.4448 15.3097 89.3042 14.8739C89.1637 14.4382 89.1642 13.9694 89.3057 13.5339C89.4483 13.0995 89.7242 12.7207 90.0945 12.4511C90.4649 12.1815 90.9109 12.0347 91.3694 12.0314L102.413 12.0149L105.929 1.48903C106.074 1.05542 106.352 0.678283 106.724 0.411043C107.096 0.143803 107.543 0 108.002 0C108.46 0 108.907 0.143803 109.279 0.411043C109.651 0.678283 109.93 1.05542 110.075 1.48903L113.531 12.0149L124.631 12.0314C125.09 12.034 125.536 12.1807 125.907 12.4508C126.278 12.7208 126.554 13.1003 126.696 13.5355C126.838 13.9707 126.838 14.4395 126.698 14.8751C126.557 15.3107 126.282 15.6911 125.912 15.9623L116.996 22.2244L120.352 33.0182C120.491 33.4535 120.489 33.9216 120.346 34.3559C120.203 34.7901 119.926 35.1683 119.555 35.4366C119.183 35.7086 118.734 35.855 118.272 35.8544Z" fill="#009CDE"/>
<path d="M73.6747 35.8544C73.2279 35.8544 72.7833 35.7177 72.4006 35.4454L63.4035 29.0146L54.4064 35.4454C54.0336 35.7127 53.5856 35.8558 53.1264 35.8542C52.6672 35.8526 52.2202 35.7065 51.8493 35.4366C51.4781 35.1683 51.2012 34.7902 51.058 34.356C50.9149 33.9218 50.9127 33.4536 51.0519 33.0182L54.4075 22.2244L45.4911 15.9623C45.1215 15.6904 44.8471 15.3097 44.7066 14.8739C44.5661 14.4382 44.5666 13.9694 44.708 13.5339C44.8506 13.0995 45.1266 12.7207 45.4969 12.4511C45.8672 12.1815 46.3132 12.0347 46.7718 12.0314L57.815 12.0149L61.3309 1.48903C61.476 1.05542 61.7543 0.678283 62.1263 0.411043C62.4984 0.143803 62.9454 0 63.404 0C63.8627 0 64.3097 0.143803 64.6817 0.411043C65.0538 0.678283 65.3321 1.05542 65.4772 1.48903L68.9334 12.0149L80.033 12.0314C80.4921 12.034 80.9388 12.1807 81.3095 12.4508C81.6802 12.7208 81.9561 13.1003 82.098 13.5355C82.2399 13.9707 82.2406 14.4395 82.1 14.8751C81.9594 15.3107 81.6847 15.6911 81.3148 15.9623L72.3984 22.2244L75.754 33.0182C75.8934 33.4535 75.8916 33.9216 75.7486 34.3559C75.6056 34.7901 75.3288 35.1683 74.9576 35.4366C74.5856 35.7086 74.1361 35.855 73.6747 35.8544Z" fill="#009CDE"/>
<path d="M28.9667 36.0962C28.5216 36.0962 28.0786 35.9596 27.6973 35.6874L18.7331 29.2587L9.76891 35.6874C9.3975 35.9546 8.95117 36.0976 8.49365 36.096C8.03612 36.0945 7.59079 35.9484 7.22124 35.6786C6.85135 35.4104 6.57546 35.0324 6.43282 34.5983C6.29018 34.1643 6.28806 33.6963 6.42675 33.261L9.77001 22.4709L0.886245 16.2108C0.51807 15.9391 0.244641 15.5585 0.104636 15.1228C-0.0353697 14.6872 -0.034865 14.2186 0.106079 13.7832C0.248134 13.349 0.523078 12.9703 0.892052 12.7008C1.26103 12.4313 1.70537 12.2845 2.16228 12.2813L13.1651 12.2648L16.6681 1.74244C16.8127 1.30897 17.0899 0.931961 17.4606 0.66481C17.8314 0.39766 18.2767 0.253906 18.7337 0.253906C19.1906 0.253906 19.636 0.39766 20.0067 0.66481C20.3774 0.931961 20.6547 1.30897 20.7992 1.74244L24.2428 12.2648L35.3017 12.2813C35.7592 12.2839 36.2042 12.4306 36.5736 12.7005C36.9429 12.9704 37.2178 13.3498 37.3592 13.7849C37.5006 14.2199 37.5013 14.6885 37.3612 15.124C37.2211 15.5595 36.9474 15.9397 36.5789 16.2108L27.6951 22.4709L31.0384 33.261C31.1774 33.6962 31.1755 34.1641 31.033 34.5982C30.8906 35.0323 30.6148 35.4104 30.245 35.6786C29.8743 35.9505 29.4264 36.0968 28.9667 36.0962Z" fill="#009CDE"/>
</svg>
