<svg width="210" height="68" viewBox="0 0 210 68" fill="none" xmlns="http://www.w3.org/2000/svg">
<g clip-path="url(#clip0_2119_120)">
<path d="M19.5569 52.2111C19.9261 54.066 18.8481 55.8735 17.3766 56.2545C10.0353 58.1942 3.39303 37.9269 2.03412 32.1129C1.04709 27.8305 -1.19766 15.2867 4.71777 13.6748C8.16864 12.7476 9.47746 14.8412 10.3947 17.6222C12.8874 14.2641 15.491 11.079 19.6837 10.1053C25.8497 8.69047 29.5879 13.8124 30.5017 19.3538C32.0475 29.2268 24.6869 42.8633 15.7559 46.042C16.7298 49.9752 19.0956 49.9034 19.5569 52.2111ZM21.1904 25.9276C23.4371 17.699 18.173 16.4269 15.6187 25.2717C14.3257 29.6682 14.0673 34.9395 14.1833 37.9252C16.9899 35.3571 20.017 30.5581 21.1904 25.9276Z" fill="#F7F4DF"/>
<path d="M51.7731 35.2881C53.5785 34.998 55.3108 35.9669 55.5506 37.9635C55.9345 41.2595 48.8024 43.7201 46.157 44.2155C31.4731 47.0206 28.548 16.0822 43.1945 13.365C47.9155 12.5404 52.5455 14.8182 53.1151 19.6137C53.3521 21.427 53.984 27.7415 42.3535 32.4122C42.9459 35.6874 44.2261 37.432 46.3938 37.0576C48.2298 36.7408 49.8056 35.607 51.7731 35.2881ZM41.8978 27.4751C45.2961 25.1598 49.0686 18.5498 44.7945 19.2626C42.5497 19.6557 41.6145 23.6797 41.8978 27.4751Z" fill="#F7F4DF"/>
<path d="M77.2502 9.22804C79.3127 9.04748 80.598 10.626 80.7307 12.6942C81.188 20.2169 77.4592 29.1411 78.0878 37.2376C78.2255 39.131 79.1512 40.9598 79.2785 42.6787C79.4067 44.4586 78.0268 46.2533 76.374 46.4101C71.7865 46.8657 70.7297 38.0945 69.9875 34.6382C69.5174 34.7503 68.9932 34.8633 68.5146 34.9231C62.8007 35.571 57.5414 34.6045 56.6688 27.2368C55.7662 19.922 63.0488 11.222 69.9993 10.5113C71.3893 10.3674 72.6554 10.7058 73.9782 11.2094C74.8519 10.1912 75.852 9.34586 77.2502 9.22804ZM65.9932 25.4846C66.3674 28.1605 68.9057 28.7325 70.1771 25.9349C70.6338 24.9582 71.1151 23.5793 71.4039 21.7579C72.1016 16.8815 68.9032 16.6342 66.8833 21.042C66.1934 22.4416 65.8103 24.1684 65.9932 25.4846Z" fill="#F7F4DF"/>
<path d="M97.455 14.8364C97.809 12.2278 99.0607 11.1427 101.117 11.0845C106.236 10.9613 105.077 22.0032 105.203 25.6263C105.325 28.9613 106.783 33.7168 106.8 35.3325C106.822 37.2365 105.27 38.8679 103.646 38.9019C100.081 38.9835 98.847 34.7224 97.8418 31.7593C95.9032 34.4275 94.5856 37.2432 91.2701 37.4258C85.1339 37.7745 82.5601 29.9353 82.1975 24.5251C81.9852 21.3139 82.2541 11.7446 86.3804 11.4708C88.2735 11.3453 89.7352 12.825 89.8284 14.8414C89.9302 16.9101 89.7556 19.1141 89.6969 21.3075C89.4575 32.2827 93.2044 34.4782 96.1468 21.7401C96.6249 19.6537 97.0907 17.2705 97.455 14.8364Z" fill="#F7F4DF"/>
<path d="M125.54 30.7522C127.358 30.8113 128.925 32.0972 128.856 34.1074C128.737 37.4287 121.344 38.487 118.675 38.4673C103.815 38.4188 105.576 7.38133 120.383 7.51806C125.149 7.60994 129.367 10.7415 129.21 15.5745C129.169 17.4008 128.842 23.7477 116.696 26.1203C116.787 29.4644 117.792 31.4317 119.974 31.4677C121.838 31.4998 123.558 30.6782 125.54 30.7522ZM116.998 21.1627C120.693 19.5329 125.391 13.747 121.081 13.6306C118.806 13.5786 117.287 17.3671 116.998 21.1627Z" fill="#F7F4DF"/>
<path d="M139.677 44.5438C139.528 47.3589 139.499 50.5215 136.325 50.3088C131.23 49.9949 132.834 24.2796 133.019 19.7868C133.097 17.8289 131.247 17.22 131.339 14.6854C131.471 10.2458 137.833 7.9806 141.48 8.26458C147.993 8.73114 153.587 14.3046 153.02 21.1269C152.333 29.6632 145.504 31.2718 139.847 34.5743C139.782 37.8597 139.852 41.3265 139.677 44.5438ZM140.771 16.3557C140.62 18.1313 140.35 20.1359 140.225 24.5666C142.277 24.7181 144.062 23.0743 144.278 19.5682C144.389 17.732 143.309 16.4298 141.605 16.299C141.327 16.3121 141.049 16.3339 140.771 16.3557Z" fill="#F7F4DF"/>
<path d="M163.511 0.759103C165.79 1.04689 166.815 2.81294 166.592 4.93032C165.697 13.5048 162.633 21.9033 161.914 29.4093C161.328 35.4719 163.396 35.6843 163.188 37.6879C162.972 39.7441 161.481 41.3396 159.807 41.1298C154.738 40.501 153.889 34.6529 153.922 30.2498C153.941 24.0649 155.326 12.6439 158.612 5.55228C160.004 2.58686 161.635 0.517465 163.511 0.759103Z" fill="#F7F4DF"/>
<path d="M171.306 41.5976C167.383 40.9772 163.985 38.3745 164.489 33.4575C165.273 25.6797 172.124 24.0533 178.376 25.1354C178.813 23.9318 179.203 22.6592 179.376 21.2938C179.555 19.9283 179.722 18.6766 178.403 18.4525C176.581 18.1489 174.145 20.7199 171.742 20.3467C169.997 20.0769 168.632 18.3161 168.828 16.4961C169.225 12.7076 176.46 11.3547 179.477 11.8844C186.449 13.0776 187.581 18.1963 186.656 24.4214C185.803 30.2087 183.832 35.7949 183.016 41.5291C182.702 43.6916 181.646 45.4638 179.459 45.0698C177.791 44.7725 176.974 42.9421 176.553 41.2365C174.819 41.6391 173.035 41.8677 171.306 41.5976ZM173.107 35.5423C174.325 35.733 176.7 35.7835 176.922 34.1378C177.15 32.3697 174.996 32.1237 174 32.2614C171.338 32.6522 170.727 35.1687 173.107 35.5423Z" fill="#F7F4DF"/>
<path d="M194.011 43.1141C193.621 45.435 192.505 47.2343 190.122 46.7297C185.52 45.7793 187.376 32.2632 187.901 28.7348C188.371 25.6177 188.899 18.2894 193.197 19.1572C195.339 19.6044 195.542 21.1736 196.109 22.8681C198.552 21.7557 201.035 21.2542 203.721 21.8763C212.284 23.927 208.882 45.4249 204.076 48.7316C203.326 49.2499 202.384 49.3694 201.298 49.1155C199.232 48.6147 198.193 45.9754 198.984 42.1021C199.365 40.253 199.733 38.5177 200.018 36.9322C202.322 24.9466 195.722 29.7924 194.649 36.4304C194.273 38.6026 194.379 40.9071 194.011 43.1141Z" fill="#F7F4DF"/>
<path d="M132.432 55.0339C132.454 56.4749 131.251 57.6991 129.666 57.7237C126.457 57.7736 119.853 56.4349 115.367 56.4522C111.492 56.4513 107.616 56.398 103.742 56.4582C81.3078 56.8069 58.1857 58.66 36.3938 64.4757C34.5141 64.9679 26.1877 67.2287 25.1128 67.2455C22.8161 67.2812 20.9699 66.4451 20.9323 64.026C20.9036 62.1833 22.9737 60.9981 24.4906 60.0573C46.3321 50.9651 90.7326 46.5887 121.806 50.7092C127.681 51.4826 132.397 52.7895 132.432 55.0339Z" fill="#F7F4DF"/>
</g>
<defs>
<clipPath id="clip0_2119_120">
<rect width="208" height="64.3534" fill="white" transform="translate(0.488281 3.267) rotate(-0.890502)"/>
</clipPath>
</defs>
</svg>
